<svg width="48" height="40" viewBox="0 0 48 40" fill="#FFC700" xmlns="http://www.w3.org/2000/svg">
<path d="M47.8001 5.2L41.5001 3.1V0H26.9001V3.1L20.6001 5.2V12.3H47.8001V5.2Z" />
<path d="M36.7001 20.2L36.3 22.7C36.6 22.6 37.0001 22.5 37.4001 22.5C38.2001 22.5 38.9 22.7 39.5 23.1L40 20.1H36.7001V20.2Z" />
<path d="M36.3999 30.2L37.3999 34H40.6999L39.4999 29.6C38.5999 30.3 37.2999 30.5 36.3999 30.2Z" />
<path d="M40.7999 35.9H37.3999C36.7999 35.9 36.3999 36.4 36.3999 36.9V38.1H41.8999V36.9C41.8999 36.3 41.3999 35.9 40.7999 35.9Z" />
<path d="M29.2999 36.1H25.8999C25.2999 36.1 24.8999 36.6 24.8999 37.1V38.3H30.3999V37.1C30.3999 36.6 29.8999 36.1 29.2999 36.1Z" />
<path d="M39.1999 26.4C39.1999 25.3 38.2999 24.5 37.2999 24.5C36.1999 24.5 35.3999 25.4 35.3999 26.4C35.3999 27.4 36.1999 28.3 37.2999 28.3C38.3999 28.4 39.1999 27.5 39.1999 26.4Z" />
<path d="M18.6001 25.8V23.2L17.1001 24.5C17.6001 25 18.0001 25.7 18.1001 26.4C18.3001 26.2 18.4001 26 18.6001 25.8Z" />
<path d="M24.6 30.8C24 31.6 23.1 32.1 22.1 32.2H22C21.8 32.2 21.7 32.2 21.5 32.2C20.5 32.2 19.6 31.8 18.9 31.2L18.2 35.1H21.5L22.1 32.2L24.7 34H29.2999L24.6 30.8Z" />
<path d="M14.4 25.3C13.3 25.3 12.5 26.2 12.5 27.2C12.5 28.3 13.4 29.1 14.4 29.1C15.5 29.1 16.3 28.2 16.3 27.2C16.3 26.3 15.5 25.3 14.4 25.3Z" />
<path d="M42.6001 32.2L43.6001 36H46.9001L45.7001 31.6C44.7001 32.3 43.5001 32.4 42.6001 32.2Z" />
<path d="M23.5 25C23.5 24.9 23.9999 22.6 23.9 22.8L24.4 20.2L27.7 18.2C28.5 18.2 41.1 18.2 40.7 18.2L43.0999 20.3L42.7 22.5L42.2999 24.6C42.5999 24.5 43 24.4 43.4 24.4C44.2 24.4 44.9 24.6 45.5 25V24.8L46 22L47.7999 18.1V14.1H20.6C20.6 14.3 20.3 22 20.2 24.6C21.3 24.3 22.5 24.4 23.5 25Z" />
<path d="M47.0001 37.8H43.6001C43.0001 37.8 42.6001 38.3 42.6001 38.8V40H48.0001V38.8C48.0001 38.3 47.5001 37.8 47.0001 37.8Z" />
<path d="M21.7001 37.2H18.3C17.7 37.2 17.3 37.7 17.3 38.2V39.4H22.8V38.2C22.7 37.7 22.3001 37.2 21.7001 37.2Z" />
<path d="M45.4001 28.4C45.4001 27.3 44.5001 26.5 43.5001 26.5C42.4001 26.5 41.6001 27.4 41.6001 28.4C41.6001 29.4 42.4001 30.3 43.5001 30.3C44.5001 30.3 45.4001 29.4 45.4001 28.4Z" />
<path d="M21.5 30.3C22.6 30.3 23.4 29.4 23.4 28.4C23.4 25.9 19.5 25.8 19.5 28.4C19.6 29.5 20.5 30.3 21.5 30.3Z" />
<path d="M0 8.99998V12.3H11.8V4.59998H4.4C2.7 6.29998 1.7 7.29998 0 8.99998ZM6.9 6.19998C8.4 6.19998 9.7 7.39998 9.7 8.99998C9.7 10.6 8.5 11.8 6.9 11.8C5.4 11.8 4.1 10.6 4.1 8.99998C4.1 7.39998 5.4 6.19998 6.9 6.19998Z" />
<path d="M6.9 10.3C7.7 10.3 8.3 9.7 8.3 8.9C8.3 8.1 7.7 7.5 6.9 7.5C6.2 7.5 5.5 8.1 5.5 8.9C5.5 9.7 6.1 10.3 6.9 10.3Z" />
<path d="M18.6 6.09998H17.2V10.8H18.6V6.09998Z" />
<path d="M15.2999 6.09998H13.8999V10.8H15.2999V6.09998Z" />
</svg>
