<svg width="50" height="51" viewBox="0 0 50 51" fill="#FFC700" xmlns="http://www.w3.org/2000/svg">
<path d="M32.9168 7.0835C31.4585 7.396 30.3126 8.54183 30.0001 10.0002H32.9168V7.0835Z" />
<path d="M34.4791 7.0835V10.0002H37.3958C37.0833 8.54183 35.9375 7.396 34.4791 7.0835Z" />
<path d="M32.9168 14.4792V11.5625H30.0001C30.2085 13.0208 31.4585 14.1667 32.9168 14.4792Z" />
<path d="M37.3958 11.5625H34.4791V14.4792C35.9375 14.1667 37.0833 13.0208 37.3958 11.5625Z" />
<path d="M50 24.6873C46.25 23.854 42.8125 26.6665 42.8125 30.4165C42.8125 33.229 44.7917 35.5207 47.3958 36.1457C49.1667 32.7082 50 28.854 50 24.6873Z" />
<path d="M48.2292 15.7292C44.5834 6.56251 35.5209 0 25 0C17.1875 0 10.2083 3.54167 5.62501 9.16668C7.70834 9.06251 9.89585 8.95834 12.1875 8.64584C12.7084 8.54168 13.2292 8.95834 13.3334 9.58334C13.4375 10.2083 13.0209 10.7292 12.3958 10.7292C9.47918 11.1458 6.66668 11.3542 3.95834 11.3542C3.4375 12.0833 3.02084 12.8125 2.70834 13.5417C7.29168 13.75 12.2917 13.3334 17.3959 12.2917C17.9167 12.1875 18.5417 12.5 18.6459 13.125C18.75 13.6459 18.4375 14.2709 17.8125 14.375C12.6042 15.4167 7.18751 16.0417 1.77084 15.625C1.45834 16.3542 1.25 16.9792 1.04167 17.7084C8.75001 18.5417 16.0417 17.2917 21.3542 15.9375C21.875 15.8334 22.5 16.1459 22.6042 16.6667C22.7084 17.1875 22.3959 17.8125 21.875 17.9167C14.8959 19.6875 7.50001 20.5209 0.520834 19.6875C0.416667 20.3125 0.3125 21.0417 0.208334 21.6667C8.12501 22.8125 17.0834 21.9792 26.0417 19.1667C26.5625 18.9584 27.1875 19.2709 27.3959 19.7917C27.6042 20.3125 27.2917 20.9375 26.7709 21.1459C18.125 23.8542 8.85418 25.1042 0 23.75C0 24.5834 0 25.3125 0 26.1459C11.7708 27.8125 35.5209 23.9584 48.2292 15.7292ZM33.6459 4.89584C36.875 4.89584 39.5834 7.50001 39.5834 10.8333C39.5834 14.0625 36.9792 16.7709 33.6459 16.7709C30.3125 16.7709 27.7084 14.1667 27.7084 10.8333C27.8125 7.50001 30.4167 4.89584 33.6459 4.89584Z" />
<path d="M41.25 30.4167C41.25 25.9376 45.3125 22.2917 49.8958 23.125C49.7916 21.25 49.375 19.4792 48.8541 17.7084C36.1458 25.6251 13.1249 30.1042 0.208252 28.4376C0.312419 29.0626 0.416585 29.6876 0.520752 30.3126C8.74993 31.7709 18.1249 31.0417 27.6041 27.9167C28.125 27.7084 28.75 28.0209 28.9583 28.5417C29.1666 29.0626 28.8541 29.6876 28.3333 29.8959C19.6874 32.7084 10.2083 33.8542 1.14575 32.5001C1.35409 33.2292 1.66659 33.9584 1.97909 34.6876C10.1041 36.0417 18.0208 35.0001 23.7499 33.6459C24.2708 33.5417 24.8958 33.8542 24.9999 34.3751C25.1041 34.8959 24.7916 35.5209 24.1666 35.6251C17.2916 37.1876 10.1041 37.8126 3.02076 36.8751C3.43742 37.7084 3.95826 38.4376 4.37492 39.1667C9.37493 39.7917 14.8958 39.6876 20.8333 38.7501C21.4583 38.6459 21.9791 39.0626 21.9791 39.5834C22.0833 40.1042 21.6666 40.7292 21.1458 40.7292C14.9999 41.7709 10.3124 41.7709 6.14576 41.4584C6.87493 42.2917 7.70826 43.1251 8.5416 43.8542C12.1874 44.0626 16.0416 43.9584 20.1041 43.3334C20.6249 43.2292 21.2499 43.6459 21.2499 44.2709C21.3541 44.7917 20.9374 45.4167 20.3124 45.4167C17.2916 45.8334 14.3749 46.0417 11.3541 46.0417C15.3124 48.5417 19.8958 50.1042 24.8958 50.1042C34.1666 50.1042 42.1875 45.1042 46.5625 37.6042C43.5416 36.6667 41.25 33.8542 41.25 30.4167ZM35.3125 44.8959C32.5 44.8959 30.2083 42.6042 30.2083 39.7917C30.2083 36.9792 32.5 34.6876 35.3125 34.6876C38.125 34.6876 40.4166 36.9792 40.4166 39.7917C40.3125 42.6042 38.125 44.8959 35.3125 44.8959Z" />
<path d="M35.3125 43.3333C37.2686 43.3333 38.8542 41.7477 38.8542 39.7917C38.8542 37.8357 37.2686 36.25 35.3125 36.25C33.3565 36.25 31.7709 37.8357 31.7709 39.7917C31.7709 41.7477 33.3565 43.3333 35.3125 43.3333Z" />
</svg>
