<svg width="37" height="51" viewBox="0 0 37 51" fill="#FFC700" xmlns="http://www.w3.org/2000/svg">
<path d="M10.0898 38.6486C10.0898 38.2867 10.1565 37.9367 10.2723 37.6069L6.87467 35.6381C6.4321 36.577 6.18848 37.6018 6.18848 38.6486C6.18848 39.7116 6.42971 40.717 6.84992 41.6233L10.2595 39.6533C10.1522 39.3331 10.0898 38.9943 10.0898 38.6486Z" />
<path d="M7.47217 42.7098C8.64491 44.3857 10.5191 45.533 12.6666 45.7217V41.7827C11.9682 41.6437 11.34 41.2777 10.8794 40.7411L7.47217 42.7098Z" />
<path d="M19.0808 34.5644C17.8831 32.8615 15.9921 31.771 13.9187 31.5856V35.5155C14.5987 35.6534 15.2163 36.0097 15.677 36.5302L19.0808 34.5644Z" />
<path d="M15.2441 38.6485C15.2441 37.5897 14.3603 36.6979 13.2927 36.6979C12.2186 36.6979 11.342 37.5893 11.342 38.6485C11.342 39.6743 12.1758 40.5992 13.2927 40.5992C14.4211 40.5992 15.2441 39.6673 15.2441 38.6485Z" />
<path d="M12.6666 35.5155V31.5856C10.5935 31.7709 8.70167 32.8599 7.50488 34.5565L10.9076 36.5287C11.3645 36.0111 11.9836 35.6537 12.6666 35.5155Z" />
<path d="M35.9089 27.9123C35.3089 27.2544 34.343 27.0882 33.5588 27.5161L26.6178 31.2894C26.1092 31.5674 25.5035 31.5592 24.9997 31.269C24.496 30.9797 24.1862 30.4596 24.1699 29.8792L23.486 5.28541C23.486 3.90863 22.3799 2.80247 21.0202 2.80247C19.6597 2.80247 18.5536 3.90863 18.5536 5.26829V26.0089C18.5536 26.3545 18.2732 26.6349 17.9275 26.6349C17.5819 26.6349 17.3015 26.3545 17.3015 26.0089V5.26829V2.46582C17.3015 1.10615 16.1953 0 14.8357 0C13.4752 0 12.369 1.10616 12.369 2.46582V6.07366V24.9704C12.369 25.316 12.0886 25.5964 11.743 25.5964C11.3974 25.5964 11.117 25.316 11.117 24.9704V6.07366C11.117 4.71319 10.0108 3.60703 8.65116 3.60703C7.29068 3.60703 6.18452 4.71319 6.18452 6.07366V9.33752V26.0089C6.18452 26.3545 5.9041 26.6349 5.55849 26.6349C5.21287 26.6349 4.93246 26.3545 4.93246 26.0089V9.33751C4.93246 7.97784 3.8263 6.87169 2.46664 6.87169C1.10616 6.87169 0 7.97785 0 9.33751L0.95617 45.089C1.03687 48.123 3.47742 50.5 6.51221 50.5H21.8084C23.8471 50.5 25.7187 49.3873 26.692 47.5948L36.1787 30.136C36.5708 29.4138 36.4623 28.5204 35.9089 27.9123ZM13.2926 47.0055C8.68539 47.0055 4.93653 43.2566 4.93653 38.6486C4.93653 34.0947 8.65824 30.2917 13.2926 30.2917C17.9552 30.2917 21.6495 34.1304 21.6495 38.6486C21.6495 43.2566 17.9006 47.0055 13.2926 47.0055Z" />
<path d="M13.9187 41.7829V45.7217C16.0666 45.533 17.9409 44.3858 19.1137 42.7101L15.7076 40.7421C15.2495 41.2764 14.6199 41.6435 13.9187 41.7829Z" />
<path d="M16.496 38.6487C16.496 38.9934 16.4335 39.3312 16.3252 39.6532L19.7357 41.6237C20.156 40.7173 20.3973 39.7118 20.3973 38.6487C20.3973 37.5995 20.1533 36.5767 19.7113 35.6451L16.3147 37.6075C16.4291 37.9344 16.496 38.2854 16.496 38.6487Z" />
</svg>
