<svg width="60" height="42" viewBox="0 0 60 42" fill="#FFC700" xmlns="http://www.w3.org/2000/svg">
    <path d="M55.2006 37.2802C55.4477 37.0331 55.4477 36.5389 55.2006 36.2918L48.282 29.3732C48.0349 29.1261 47.5407 29.1261 47.2936 29.3732L47.1701 29.6203C46.923 29.8674 46.923 30.3616 47.1701 30.6087L54.0887 37.5273C54.3358 37.7744 54.83 37.7744 55.077 37.5273L55.2006 37.2802Z" />
    <path d="M56.0654 35.5506C56.3125 35.7977 56.8066 35.7977 57.0537 35.5506L57.1773 35.427C57.4244 35.1799 57.4244 34.6857 57.1773 34.4387L50.2587 27.52C50.0116 27.2729 49.5174 27.2729 49.2703 27.52L49.1467 27.6436C48.8997 27.8907 48.8997 28.3849 49.1467 28.632L56.0654 35.5506Z" />
    <path d="M46.4287 31.3501C46.1816 31.103 45.6874 31.103 45.4403 31.3501L45.3168 31.4737C45.0697 31.7208 45.0697 32.2149 45.3168 32.462L52.2354 39.3807C52.4825 39.6277 52.9767 39.6277 53.2238 39.3807L53.3473 39.2571C53.5944 39.01 53.5944 38.5158 53.3473 38.2687L46.4287 31.3501Z" />
    <path d="M59.4012 37.4038C59.0305 37.0332 58.4128 37.0332 58.0422 37.4038L55.2006 40.2454C54.8299 40.616 54.8299 41.2338 55.2006 41.6044C55.5712 41.9751 56.189 41.9751 56.5596 41.6044L59.4012 38.7629C59.7718 38.3922 59.7718 37.7745 59.4012 37.4038Z" />
    <path d="M47.17 24.4312L47.4171 24.1842C47.7878 23.8135 47.7878 23.1958 47.4171 22.8251L47.17 22.578C46.7994 22.2074 46.1817 22.2074 45.811 22.578L45.5639 22.8251L42.2282 19.4894L39.3866 26.5315L40.6221 27.767L40.375 28.0141C40.0043 28.3847 40.0043 29.0025 40.375 29.3731L40.6221 29.6202C40.9927 29.9909 41.6104 29.9909 41.9811 29.6202L42.2282 29.3731L43.4636 30.6086L48.4055 25.6667L47.17 24.4312Z" />
    <path d="M1.08711 36.539L1.82839 37.2803L0.345825 38.7628L3.55804 41.9751L5.0406 40.4925L5.65833 41.2338L10.3531 36.539L5.65833 31.9678L1.08711 36.539Z" />
    <path d="M8.45354 29.1285L7.05579 30.5262L11.6859 35.1563L13.0836 33.7586L8.45354 29.1285Z" />
    <path d="M11.2265 26.4328L9.82874 27.8306L14.4588 32.4606L15.8566 31.0629L11.2265 26.4328Z" />
    <path d="M13.3001 23.0386L11.9023 24.4364L17.8428 30.3769L19.2406 28.9791L13.3001 23.0386Z" />
    <path d="M33.5799 13.4357L31.2325 15.7831L38.5218 23.5665L40.1279 19.613L33.5799 13.4357Z" />
    <path d="M28.638 8.86447L19.2484 0.0926514L17.7659 1.45166L26.6612 10.8412L28.638 8.86447Z" />
    <path d="M41.8575 2.81069C42.3517 2.19296 42.3517 1.20458 41.8575 0.710395L41.6104 0.4633C40.9926 -0.154433 40.0043 -0.154433 39.5101 0.4633L16.5304 23.443L18.8778 25.7904L41.8575 2.81069Z" />
</svg>