<svg width="41" height="49" viewBox="0 0 41 49" fill="#FFC700" xmlns="http://www.w3.org/2000/svg">
<path d="M36.6001 10.875C36.6001 6.075 32.8001 1.475 28.0001 0.675C22.7001 -0.225 17.4001 -0.225 12.2001 0.675C7.5001 1.475 3.6001 6.075 3.6001 10.875V13.875H36.6001V10.875Z" />
<path d="M40.2 26.575V21.375C40.2 18.975 37.6 18.575 36.7 17.975H36.6V16.475H3.6V17.975H3.5L1.6 18.875C0.6 19.375 0 20.275 0 21.375V26.575C0 27.675 0.6 28.575 1.6 29.075L3.5 29.975C3.2 31.775 2.3 33.475 1 34.875C0.5 35.375 0.5 36.175 1 36.775L3.2 39.075C4 39.875 3.9 40.375 5.5 44.875C5.9 45.975 7.1 46.675 8.2 46.375C10.2 45.975 12 45.575 13.8 45.375C14.4 47.075 15.9 48.075 17.5 48.075H22.7C24.4 48.075 25.9 47.075 26.5 45.375C28.3 45.575 30.2 45.975 32.1 46.375C33.3 46.675 34.5 45.975 34.8 44.875C35.3 43.275 36 41.175 36.4 40.175C36.7 39.175 37.3 38.875 39.3 36.775C39.8 36.275 39.8 35.475 39.3 34.875C38 33.575 37.1 31.875 36.8 29.975C37.6 29.375 40.2 28.975 40.2 26.575ZM3.6 27.875L2.4 27.275C2.1 27.175 1.9 26.875 1.9 26.475V21.275C1.9 20.975 2.1 20.675 2.4 20.475L3.6 19.975V27.875ZM7 20.875C6.7 20.175 7.2 19.375 7.8 19.375H16.9C17.6 19.375 18 20.175 17.7 20.875C16.7 23.275 14.6 24.775 12.3 24.775C10 24.775 8 23.275 7 20.875ZM10 42.175C8.9 42.175 8 41.275 8 40.175C8 39.075 8.9 38.175 10 38.175C11.1 38.175 12 39.075 12 40.175C12 41.275 11.1 42.175 10 42.175ZM22.7 46.075H17.5C15.9 46.075 14.9 44.275 15.8 42.875L18.4 39.075C19.2 37.875 20.9 37.875 21.7 39.075L24.3 42.875C25.3 44.175 24.3 46.075 22.7 46.075ZM27.8 32.575C27.5 32.975 26.9 33.075 26.4 32.775C20 27.675 14 32.575 13.7 32.775C13.3 33.075 12.7 33.075 12.3 32.675C12 32.275 12 31.675 12.4 31.275C12.5 31.175 19.8 25.075 27.5 31.275C28.1 31.475 28.1 32.175 27.8 32.575ZM30.2 42.175C29.1 42.175 28.2 41.275 28.2 40.175C28.2 39.075 29.1 38.175 30.2 38.175C31.3 38.175 32.2 39.075 32.2 40.175C32.1 41.275 31.2 42.175 30.2 42.175ZM33.2 20.875C32.2 23.275 30.1 24.775 27.8 24.775C25.5 24.775 23.4 23.275 22.4 20.875C22.1 20.175 22.6 19.375 23.2 19.375H32.3C33 19.375 33.5 20.175 33.2 20.875ZM38.3 26.575C38.3 27.375 37.4 27.475 36.6 27.875V19.975C37.3 20.375 38.3 20.475 38.3 21.275V26.575Z" />
</svg>
