<svg width="72" height="32" viewBox="0 0 72 32" fill="#FFC700" xmlns="http://www.w3.org/2000/svg">
    <path fill-rule="evenodd" clip-rule="evenodd" d="M0 10.0032V15.0061H14.6854C16.3924 15.0061 18.5732 13.4333 18.5732 10.8313C18.5732 9.78485 18.9748 9.10223 17.7405 7.71801L15.8622 5.5001C14.7858 4.49951 15.9907 4.49951 16.8948 4.49951H23.0951V15.0061H28.0124V4.49951H34.6397V0H13.1793C10.5683 0 9.29155 2.49832 9.36339 3.79909C9.43562 5.09986 9.67572 6.73641 11.8454 8.70239C13.8246 10.4952 10.8655 10.0032 10.5683 10.0032H0ZM45.5128 0H37.5801L33.1332 15.0065H38.0822L38.8851 12.9053H44.1063L44.8814 15.0065H49.7292L45.5128 0ZM39.9899 9.30275L41.6969 3.79909L43.3038 9.30275H39.9899ZM65.3941 10.0032C63.4863 10.0032 63.4863 9.30275 63.4863 9.30275C65.121 9.30275 66.5704 6.92941 66.5704 4.49951C66.5704 2.06961 64.1892 0 62.2806 0H51.6084V15.0065H57.0312V10.0036C57.0312 10.0036 59.3402 12.7052 60.5451 13.8058C61.7504 14.9065 61.8504 15.0065 63.4859 15.0065H71.9984V10.0036C71.9992 10.0032 67.3018 10.0032 65.3941 10.0032ZM60.4737 6.50109H57.032V3.79909H60.4737C62.0516 3.79909 62.3247 6.50109 60.4737 6.50109ZM0 16.9073H5.54786L6.95358 21.911L8.25889 16.9073H14.083L15.5891 21.911L17.0956 16.9073H21.9152L17.4969 31.9173H13.0789L11.143 24.8123L8.96175 31.9173H4.44337L0 16.9073ZM33.3011 16.9939H25.3684L20.9219 32H25.8705L26.6737 29.8992H31.8954L32.6704 32H37.5186L33.3011 16.9939ZM27.7786 26.2962L29.4856 20.7926L31.0921 26.2962H27.7786ZM65.4941 21.4107C64.5912 21.4107 63.6066 21.5159 64.6833 22.5161L66.5621 24.7344C67.7959 26.1186 67.7761 26.6957 67.7761 27.7429C67.7761 30.3445 65.1933 31.9173 63.4863 31.9173L51.6215 31.9968C49.9867 31.9968 49.8867 31.8972 48.6814 30.7965C47.4769 29.6959 45.1671 26.9939 45.1671 26.9939V31.9968H39.7451V16.9907H50.4173C52.3251 16.9907 54.7071 19.0607 54.7071 21.4902C54.7071 23.9205 53.2578 26.2935 51.6222 26.2935C51.6222 26.2935 52.3414 27.014 53.5463 27.014C54.7516 27.014 59.391 27.0188 59.391 27.0188C59.6879 27.0188 62.6465 27.5108 60.6677 25.718C58.498 23.752 58.2579 22.1163 58.1857 20.8155C58.1135 19.5147 59.2422 16.9076 61.852 16.9076H72V21.4111H65.4941V21.4107ZM48.6092 23.4914H45.1667V20.7894H48.6092C50.1876 20.7894 50.4602 23.4914 48.6092 23.4914Z" />
</svg>
